<svg height="31" width="134"  fill="#001391" viewBox="0 0 774 180" xmlns="http://www.w3.org/2000/svg"><path d="M444.769 175.185L378.566 4.53904H342.955L276.752 175.185H307.105L323.357 130.492H397.686L414.177 175.185H444.769ZM360.163 29.634H361.119L389.321 107.309H331.722L360.163 29.634Z" fill="#001391"></path><path d="M488.274 153.436C478.475 153.436 473.934 152.241 473.934 140.53V68.1131H501.18V48.9931H473.934V13.382H447.644V48.9931H427.09V68.1131H447.644V147.461C447.644 170.405 458.399 175.663 481.104 175.663C487.796 175.663 497.117 175.424 499.985 175.185V153.197C496.4 153.436 490.903 153.436 488.274 153.436Z" fill="#001391"></path><path d="M536.594 175.185V2.14905H510.065V175.185H536.594Z" fill="#001391"></path><path d="M660.082 175.185C656.975 169.449 656.736 162.279 656.736 148.417V84.843C656.736 63.333 642.874 46.125 605.829 46.125C578.105 46.125 557.073 59.748 551.337 82.453L575.476 87.711C580.017 73.371 592.206 66.918 604.873 66.918C623.515 66.918 630.446 74.327 630.446 85.082C630.446 92.969 624.232 97.0321 600.332 99.6611C566.394 103.007 546.557 113.045 546.557 140.291C546.557 163.713 565.916 178.053 589.099 178.053C604.634 178.053 622.559 172.317 630.685 159.65C630.685 166.82 632.597 173.034 634.509 175.185H660.082ZM630.446 125.473C630.446 148.895 610.131 157.977 594.118 157.977C581.451 157.977 573.325 151.763 573.325 140.052C573.325 126.668 585.753 120.454 598.659 118.781C612.282 117.108 626.383 114.957 630.446 110.894V125.473Z" fill="#001391"></path><path d="M770.7 81.9751C767.354 62.6161 746.322 46.125 718.359 46.125C688.962 46.125 667.691 61.6601 667.691 83.6481C667.691 109.938 688.245 116.63 708.082 119.976L720.988 122.127C736.045 124.756 746.8 128.341 746.8 139.335C746.8 151.524 735.567 158.933 719.793 158.933C702.346 158.933 689.918 151.285 686.094 133.838L661.955 138.618C666.257 161.801 686.811 178.053 719.315 178.053C750.146 178.053 773.568 164.669 773.568 138.379C773.568 111.372 752.775 104.441 730.787 100.617L718.359 98.705C704.975 96.554 694.22 93.925 694.22 83.17C694.22 71.698 704.019 65.4841 718.12 65.4841C731.265 65.4841 743.454 72.4151 746.8 86.7551L770.7 81.9751Z" fill="#001391"></path><path d="M117.732 179.106H84.1283C38.4701 179.106 1.30636 142.737 0.0263672 97.3887H83.9246C95.7583 97.3887 101.675 97.3887 106.195 99.6917C110.171 101.717 113.403 104.95 115.429 108.926C117.732 113.445 117.732 119.362 117.732 131.196V179.106Z" fill="#001391"></path><path d="M0.0224609 82.6236C1.23644 37.2157 38.427 0.778687 84.1279 0.778687H117.731V48.8164C117.731 60.65 117.731 66.5668 115.428 71.0867C113.403 75.0624 110.17 78.2948 106.194 80.3206C101.675 82.6236 95.7578 82.6236 83.9242 82.6236H0.0224609Z" fill="#001391"></path><path d="M132.505 179.106H166.108C211.766 179.106 248.93 142.737 250.21 97.3887H166.312C154.478 97.3887 148.561 97.3887 144.041 99.6917C140.066 101.717 136.833 104.95 134.808 108.926C132.505 113.445 132.505 119.362 132.505 131.196V179.106Z" fill="#001391"></path><path d="M250.214 82.6236C249 37.2157 211.809 0.778687 166.108 0.778687H132.505V48.8164C132.505 60.65 132.505 66.5668 134.808 71.0867C136.834 75.0624 140.066 78.2948 144.042 80.3206C148.562 82.6236 154.478 82.6236 166.312 82.6236H250.214Z" fill="#001391"></path></svg>